<?xml version="1.0" encoding="utf-8"?>
<!-- Designed by Vexels.com - 2020 All Rights Reserved - https://vexels.com/terms-and-conditions/  -->
<svg version="1.1" id="Capa_1" xmlns="http://www.w3.org/2000/svg" xmlns:xlink="http://www.w3.org/1999/xlink" x="0px" y="0px"
	 viewBox="0 0 1200 1200" enable-background="new 0 0 1200 1200" xml:space="preserve">
<g>
	<g>
		<g>
			<g>
				<g>
					<path fill="#D39367" d="M479.522,662.57l46.726,65.193l-0.179,0.129c-16.26,11.635-158.31,117.672-139.571,255.925
						l-79.479,10.774c-10.748-79.288,14.948-161.231,74.307-236.969c41.032-52.354,85.435-85.917,98.065-94.957L479.522,662.57z"/>
				</g>
				<g>
					<defs>
						<path id="SVGID_1_" d="M479.522,662.57l46.726,65.193l-0.179,0.129c-16.26,11.635-158.31,117.672-139.571,255.925
							l-79.479,10.774c-10.748-79.288,14.948-161.231,74.307-236.969c41.032-52.354,85.435-85.917,98.065-94.957L479.522,662.57z"/>
					</defs>
					<clipPath id="SVGID_2_">
						<use xlink:href="#SVGID_1_"  overflow="visible"/>
					</clipPath>
					
						<rect x="285.281" y="931.026" transform="matrix(-0.9829 0.184 -0.184 -0.9829 903.3348 1903.0492)" clip-path="url(#SVGID_2_)" fill="#172445" width="156.138" height="124.843"/>
				</g>
				<g>
					<path fill="#D39367" d="M686.058,705.903l-18.097-78.14l0.215-0.05c19.482-4.496,191.367-47.829,227.175-182.672l77.52,20.585
						c-20.535,77.333-75.737,143.118-159.636,190.242c-57.996,32.575-111.884,46.505-127.018,50L686.058,705.903z"/>
				</g>
				<path fill="#D39367" d="M718.092,602.011c3.412,2.649,6.75,5.29,10.004,7.891c56.592,45.237,100.773,101.379,113.401,180.965
					c10.187,64.204-5.239,157.808-47.719,202.917c-43.979,46.701-211.192-14.972-248.11,62.44
					c-26.757,56.107-101.934-125.474-119.414-193.103c-31.17-120.595,29.033-219.723,111.694-282.417
					c16.167-12.262,33.333-23.775,52.565-27.904C634.813,543.291,680.901,573.14,718.092,602.011z"/>
				<polygon fill="#D39367" points="829.398,916.321 818.008,1150 751.88,1150 717.919,955.104 				"/>
				<polygon fill="#172445" points="743.272,1100.597 751.88,1150 818.008,1150 820.416,1100.597 				"/>
				<polygon fill="#D39367" points="582.586,918.336 552.783,1150 486.655,1150 443.638,903.13 				"/>
				<polygon fill="#172445" points="478.047,1100.597 486.655,1150 552.783,1150 560.006,1100.597 				"/>
				<path fill="#E3A886" d="M654.962,567.938c-0.647-0.685-1.329-1.387-1.988-2.077c-24.014-10.945-49.194-16.878-73.926-11.686
					c-18.946,3.977-36.015,14.426-52.122,25.887c-24.837,39.966-37.737,92.858-23.822,154.985
					c10.434,46.585,35.625,87.294,66.023,105.994c30.91,19.014,64.882,15.232,94.511,0.361
					c13.084-6.566,25.736-15.347,35.963-28.702c22.085-28.844,24.491-74.68,17.916-118.779
					C709.366,639.257,685.281,599.994,654.962,567.938z"/>
				<g>
					<g>
						<path fill="#D39367" d="M645.956,337.571c0,0,51.366-11.592,74.34-67.067c2.121-5.122,8.882-6.193,12.555-2.044
							C798.549,342.676,676.163,411.416,645.956,337.571z"/>
					</g>
					<g>
						<path fill="#6D3439" d="M649.518,340.571c0,0,25.58,6.236,48.208-13.495c2.089-1.822,5.355-0.797,6.077,1.877
							C716.713,376.801,646.618,380.357,649.518,340.571z"/>
					</g>
					<g>
						<path fill="#D39367" d="M420.041,379.706c0,0-51.985,8.39-93.981-34.523c-3.877-3.962-10.551-2.436-12.412,2.783
							C280.347,441.323,419.536,459.489,420.041,379.706z"/>
					</g>
					<g>
						<path fill="#6D3439" d="M417.853,383.817c0,0-21.412,15.321-49.764,5.447c-2.618-0.912-5.266,1.256-4.939,4.007
							C369.006,442.484,435.375,419.656,417.853,383.817z"/>
					</g>
					<g>
						<path fill="#D39367" d="M495.461,297.599c41.496-9.162,87.963-4.07,126.069,14.933c19.666,9.808,37.541,23.7,49.963,42.008
							c15.456,22.781,12.698,40.46,16.233,65.945c7.172,51.702,49.002,95.158,27.182,149.944
							c-20.928,52.547-81.424,76.333-132.523,88.212c-45.344,10.541-92.263,3.236-128.485-27.098
							c-31.607-26.47-48.638-67.186-37.312-107.89c13.723-49.317-19.919-96.926-3.282-144.589
							C424.332,347.475,461.705,305.054,495.461,297.599z"/>
					</g>
					<g>
						<path fill="#172445" d="M605.94,477.232c-3.46-17.51-1.154-31.15,6.843-40.543c4.88-5.725,11.127-8.596,17.529-8.146
							c6.286,0.467,11.865,4.115,15.708,10.274c6.273,10.051,7.225,22.781,7.99,33.01l-4.795,0.356
							c-0.726-9.701-1.633-21.773-7.277-30.82c-3.007-4.821-7.264-7.673-11.975-8.019c-4.867-0.395-9.656,1.934-13.511,6.467
							c-7.005,8.217-8.949,20.49-5.793,36.487L605.94,477.232z"/>
					</g>
					<g>
						<path fill="#172445" d="M469.759,493.84c-3.46-17.516-1.153-31.157,6.843-40.543c4.893-5.725,11.12-8.593,17.535-8.146
							c6.286,0.467,11.859,4.118,15.695,10.274c6.292,10.077,7.271,23.332,7.99,33.01l-4.795,0.356
							c-0.719-9.691-1.62-21.751-7.277-30.82c-3.007-4.821-7.258-7.669-11.969-8.022c-4.841-0.343-9.649,1.938-13.511,6.47
							c-7.005,8.21-8.949,20.487-5.793,36.487L469.759,493.84z"/>
					</g>
					<g>
						<path fill="#E4D6D9" d="M714.908,570.43c0.661-1.66,1.258-3.308,1.805-4.947c-11.19-12.092-24.933-21.746-39.683-29.102
							c-38.106-19.004-84.573-24.096-126.069-14.934c-33.756,7.455-71.129,49.875-82.155,81.465
							c-4.244,12.159-5.206,24.315-4.526,36.497c40.568,27.872,94.435,28.953,140.329,15.36
							C647.882,641.952,697.423,614.363,714.908,570.43z"/>
					</g>
					<g>
						
							<ellipse transform="matrix(0.9816 -0.1911 0.1911 0.9816 -94.6782 120.1785)" fill="#6D3439" cx="575.852" cy="551.047" rx="19.875" ry="13.875"/>
					</g>
					<g>
						<g>
							<path fill="#6D3439" d="M609.42,343.681c-6.085,0-11.742-3.875-13.732-9.976c-6.519-20.043-3.506-43.252,8.489-65.353
								c19.836-36.558,51.148-62.229,81.424-87.055c5.197-4.261,10.381-8.512,15.494-12.805
								c37.922-31.876,55.626-62.019,76.829-109.894c3.227-7.297,11.781-10.582,19.045-7.355c7.29,3.227,10.582,11.755,7.355,19.045
								c-22.486,50.779-42.64,84.991-84.651,120.308c-5.204,4.368-10.478,8.693-15.76,13.028
								c-29.427,24.126-57.22,46.913-74.36,78.498c-8.055,14.849-10.394,30.395-6.402,42.653c2.462,7.582-1.685,15.727-9.267,18.193
								C612.401,343.451,610.898,343.681,609.42,343.681z"/>
						</g>
						<g>
							<path fill="#6D3439" d="M710.388,193.985c-5.547,0-10.835-3.214-13.213-8.615L646.409,70.269
								c-3.221-7.293,0.084-15.818,7.381-19.036c7.29-3.224,15.825,0.094,19.032,7.384l50.766,115.101
								c3.221,7.293-0.084,15.818-7.381,19.036C714.315,193.59,712.332,193.985,710.388,193.985z"/>
						</g>
						<g>
							<path fill="#6D3439" d="M637.492,259.889c-7.485,0-13.816-5.774-14.38-13.359c-0.596-7.951,5.366-14.879,13.317-15.475
								c53.909-4.05,147.01-21.819,167.299-52.263c4.432-6.639,13.395-8.418,20.024-4.005c6.636,4.426,8.424,13.388,4.005,20.024
								c-34.714,52.065-173.468,63.862-189.176,65.035C638.218,259.876,637.849,259.889,637.492,259.889z"/>
						</g>
					</g>
					<g>
						<g>
							<path fill="#6D3439" d="M439.587,383.677c-0.46,0-0.927-0.023-1.393-0.065c-7.938-0.758-13.757-7.809-12.999-15.744
								c1.225-12.841-4.426-27.512-15.514-40.245c-23.607-27.123-55.704-43.333-89.673-60.499
								c-6.091-3.075-12.163-6.143-18.177-9.27c-48.679-25.347-75.779-54.369-108.764-99.056c-4.731-6.415-3.37-15.455,3.046-20.189
								c6.422-4.747,15.462-3.37,20.192,3.042c31.092,42.134,54.92,67.712,98.862,90.59c5.903,3.072,11.872,6.088,17.859,9.111
								c34.961,17.662,71.114,35.926,98.428,67.313c16.505,18.955,24.489,40.955,22.486,61.944
								C453.228,378.081,446.942,383.677,439.587,383.677z"/>
						</g>
						<g>
							<path fill="#6D3439" d="M308.512,259.487c-0.933,0-1.879-0.091-2.832-0.282c-7.822-1.555-12.896-9.157-11.34-16.978
								l24.553-123.383c1.555-7.822,9.137-12.934,16.978-11.34c7.822,1.555,12.896,9.157,11.34,16.978l-24.553,123.383
								C321.291,254.734,315.258,259.487,308.512,259.487z"/>
						</g>
						<g>
							<path fill="#6D3439" d="M313.152,313.749c-43.527,0-92.343-5.735-115.911-28.309c-5.761-5.515-5.955-14.655-0.441-20.413
								c5.521-5.764,14.645-5.959,20.413-0.441c26.465,25.341,121.167,22.451,174.667,14.674
								c7.835-1.098,15.216,4.319,16.362,12.212c1.147,7.89-4.322,15.219-12.215,16.366
								C388.575,308.922,353.083,313.749,313.152,313.749z"/>
						</g>
					</g>
					<g>
						<path fill="#172445" d="M602.279,610.928c-1.439,0-2.268-0.136-2.411-0.162l0.836-4.74
							c0.143,0.036,14.509,2.119,35.162-17.124l3.279,3.519C621.331,609.026,607.619,610.928,602.279,610.928z"/>
					</g>
				</g>
				<g>
					<defs>
						<path id="SVGID_3_" d="M686.058,705.903l-18.097-78.14l0.215-0.05c19.482-4.496,191.367-47.829,227.175-182.672l77.52,20.585
							c-20.535,77.333-75.737,143.118-159.636,190.242c-57.996,32.575-111.884,46.505-127.018,50L686.058,705.903z"/>
					</defs>
					<clipPath id="SVGID_4_">
						<use xlink:href="#SVGID_3_"  overflow="visible"/>
					</clipPath>
					
						<rect x="842.353" y="382.619" transform="matrix(0.9782 0.2077 -0.2077 0.9782 112.4797 -181.4314)" clip-path="url(#SVGID_4_)" fill="#172445" width="156.138" height="124.843"/>
				</g>
				<g>
					<path fill="#172445" d="M745.92,1125.857c-0.778,0-1.465-0.567-1.588-1.361l-17.62-114.842
						c-0.13-0.875,0.467-1.695,1.341-1.827c0.927-0.169,1.698,0.47,1.834,1.341l17.62,114.842c0.13,0.875-0.467,1.695-1.341,1.828
						C746.082,1125.851,745.997,1125.857,745.92,1125.857z"/>
				</g>
				<g>
					<path fill="#172445" d="M551.116,1143.513c-0.084,0-0.169-0.006-0.253-0.019c-0.875-0.139-1.471-0.962-1.328-1.837
						l22.583-142.234c0.136-0.875,0.972-1.494,1.834-1.332c0.875,0.139,1.471,0.962,1.328,1.837l-22.583,142.234
						C552.574,1142.949,551.894,1143.513,551.116,1143.513z"/>
				</g>
			</g>
		</g>
	</g>
</g>
</svg>
